<?xml version="1.0" encoding="UTF-8"?>
<svg width="25px" height="26px" viewBox="0 0 25 26" version="1.1" xmlns="http://www.w3.org/2000/svg" xmlns:xlink="http://www.w3.org/1999/xlink">
    <title>Path</title>
    <g id="Page-1" stroke="none" stroke-width="1" fill="none" fill-rule="evenodd" fill-opacity="0.196097847">
        <g id="Main" transform="translate(-1271.000000, -941.000000)" fill="#797979" fill-rule="nonzero">
            <g id="Chat" transform="translate(100.000000, 0.000000)">
                <g id="Input-Section-" transform="translate(104.000000, 924.000000)">
                    <g id="Send-Button-Copy-2" transform="translate(1039.000000, 0.000000)">
                        <path d="M51.7745108,29.0910173 L29.48933,17.0901694 C29.1344813,16.9021561 28.7110629,17.014164 28.4642116,17.3701892 C28.2156462,17.7262143 28.2070749,18.2322501 28.4436407,18.5982759 L35.7720367,29.9990814 L28.4436407,41.3998869 C28.2070749,41.7659128 28.2156462,42.2739487 28.4624974,42.6279737 C28.6287791,42.8699908 28.8773446,43 29.1293386,43 C29.2510499,43 29.3727613,42.9699979 29.4876157,42.9079935 L51.7727966,30.9071456 C52.0779321,30.743134 52.2716418,30.389109 52.2716418,29.9990814 C52.2716418,29.6090539 52.0779321,29.2550289 51.7745108,29.0910173 Z" id="Path"></path>
                    </g>
                </g>
            </g>
        </g>
    </g>
</svg>